<?xml version="1.0" encoding="UTF-8"?>
<svg width="554px" height="143px" viewBox="0 0 554 143" version="1.1" xmlns="http://www.w3.org/2000/svg" xmlns:xlink="http://www.w3.org/1999/xlink">
    <!-- Generator: Sketch 57.1 (83088) - https://sketch.com -->
    <title>Group 2</title>
    <desc>Created with Sketch.</desc>
    <defs>
        <linearGradient x1="32.0073495%" y1="53.4090011%" x2="153.216573%" y2="-16.8530504%" id="linearGradient-1">
            <stop stop-color="#D01F49" offset="21.89%"></stop>
            <stop stop-color="#E8138B" offset="83.44%"></stop>
        </linearGradient>
        <linearGradient x1="-38.3524521%" y1="84.9974711%" x2="104.052468%" y2="14.7346189%" id="linearGradient-2">
            <stop stop-color="#D01F49" offset="21.89%"></stop>
            <stop stop-color="#E8138B" offset="83.44%"></stop>
        </linearGradient>
    </defs>
    <g id="IMDb-TV-Logo-Treatments" stroke="none" stroke-width="1" fill="none" fill-rule="evenodd">
        <g id="Secondary-(16:9)" transform="translate(-121.000000, -771.000000)">
            <g id="IMDbTV_CMYK_Black_Linear_1920x1080" transform="translate(0.000000, 619.000000)">
                <g id="Group-2" transform="translate(121.305170, 152.383354)">
                    <g id="Group" transform="translate(0.000000, -0.000000)" fill="#FFFFFF">
                        <path d="M270.04198,0.280589945 L270.04198,140.406383 L302.90776,140.406383 L305.223068,131.510031 C308.151374,135.112311 311.427597,137.753158 315.039312,139.593497 C318.659311,141.355437 323.969195,142.242597 328.127638,142.242597 C333.859993,142.242597 338.900655,140.748868 343.059098,137.691263 C347.287953,134.707931 349.951178,131.105652 351.044634,127.020592 C352.204359,122.886017 352.751086,116.634638 352.751086,108.278834 L352.751086,68.9591052 C352.751086,60.4712594 352.610262,54.9626186 352.204359,52.3877932 C351.856441,49.8088415 350.696716,47.155616 348.861865,44.432243 C346.952461,41.7171226 344.293377,39.6168244 340.747932,38.1148429 C337.132075,36.6211141 332.977774,35.8742497 328.127638,35.8742497 C323.973337,35.8742497 318.588899,36.6912616 314.973042,38.3913065 C311.431739,40.0170777 308.155516,42.5300082 305.22721,45.8599507 L305.22721,0.280589945 L270.04198,0.280589945 Z M317.565856,106.446747 C317.565856,113.172653 317.222081,117.513545 316.542813,119.283737 C315.859404,121.049803 312.926956,121.924584 310.673776,121.924584 C308.499291,121.924584 307.057919,121.115824 306.316523,119.353885 C305.633114,117.65384 305.223068,113.717328 305.223068,107.53197 L305.223068,70.5106026 C305.223068,64.123055 305.562702,60.1824168 306.179841,58.5525193 C306.863251,56.9927693 308.292198,56.1798838 310.404554,56.1798838 C312.653592,56.1798838 315.648168,57.1330643 316.406131,58.8991304 C317.155811,60.7270914 317.565856,64.6058347 317.565856,70.5106026 L317.565856,106.446747 L317.565856,106.446747 Z" id="Shape"></path>
                        <polygon id="Rectangle-path" points="0.202951885 0.280589945 36.6804469 0.280589945 36.6804469 140.406383 0.202951885 140.406383"></polygon>
                        <path d="M114.535275,0.280589945 L106.081708,65.7570788 L100.89608,30.1675454 C99.3304513,18.7582631 97.9015044,8.77256209 96.4684155,0.276463622 L49.1516331,0.276463622 L49.1516331,140.402257 L81.1269098,140.402257 L81.2677335,47.8942278 L94.6998348,140.402257 L117.471865,140.402257 L130.286827,45.8599507 L130.353097,140.402257 L162.25382,140.402257 L162.25382,0.280589945 L114.535275,0.280589945 Z" id="Shape"></path>
                        <path d="M218.980942,140.406383 C227.707873,140.406383 234.252036,139.92773 238.621715,138.982802 C242.908555,138.033747 246.594824,136.40385 249.52313,133.956941 C252.455578,131.571926 254.572076,128.250236 255.727659,124.037261 C256.953654,119.828412 257.637064,111.410713 257.637064,98.8419343 L257.637064,49.6644202 C257.637064,36.4189243 257.090336,27.5225725 256.340657,22.9712386 C255.524707,18.4900521 253.478621,14.3430978 250.202398,10.6789232 C246.996586,7.00649597 242.229288,4.35739679 236.024759,2.73575196 C229.82023,1.10172816 219.59394,0.280589945 201.932984,0.280589945 L174.729148,0.280589945 L174.729148,140.406383 L218.980942,140.406383 Z M219.324718,25.5543166 C220.749523,26.3672021 221.710438,27.6628675 222.124626,29.4908284 C222.530529,31.2568946 222.737623,35.3295751 222.737623,41.6469752 L222.737623,95.9122452 C222.737623,105.291377 222.124626,110.998081 220.890347,113.106632 C219.668494,115.211057 216.462682,116.226132 211.210785,116.226132 L211.210785,24.2669039 C215.162133,24.2669039 217.887487,24.6712835 219.324718,25.5543166 Z" id="Shape"></path>
                    </g>
                    <g id="Group" transform="translate(374.943253, 36.090794)" fill-rule="nonzero">
                        <polygon id="Shape" fill="url(#linearGradient-1)" points="30.2121074 105.032737 30.2121074 23.000777 0.207017318 23.000777 0.207017318 0.149194229 89.0257274 0.149194229 89.0257274 23.000777 59.0206374 23.000777 59.0206374 105.028593 30.2121074 105.028593"></polygon>
                        <polygon id="Shape" fill="url(#linearGradient-2)" points="110.551388 105.032737 73.8306563 0.153338513 105.777569 0.153338513 126.375792 77.4898248 146.978155 0.153338513 178.175665 0.153338513 141.454933 105.032737"></polygon>
                    </g>
                </g>
            </g>
        </g>
    </g>
</svg>